<svg xmlns="http://www.w3.org/2000/svg" viewBox="0 0 512 512"><defs><linearGradient id="gold" x1="0" y1="0" x2="1" y2="1"><stop offset="0" stop-color="#fff3a0"/><stop offset=".35" stop-color="#ffd33d"/><stop offset=".72" stop-color="#f0a500"/><stop offset="1" stop-color="#fff0a0"/></linearGradient><linearGradient id="blue" x1="0" y1="0" x2="1" y2="1"><stop offset="0" stop-color="#65e8ff"/><stop offset=".45" stop-color="#00a9ff"/><stop offset="1" stop-color="#124bff"/></linearGradient><radialGradient id="bg"><stop offset="0" stop-color="#111b2f"/><stop offset="1" stop-color="#02050c"/></radialGradient></defs><rect width="512" height="512" rx="112" fill="url(#bg)"/><path d="M116 190 150 166 170 108 198 142 256 68 314 142 342 108 362 166 396 190 368 207 354 168 320 181 292 146 256 190 220 146 192 181 158 168 144 207Z" fill="url(#gold)" stroke="#ffcf3c" stroke-width="5" stroke-linejoin="round"/><path d="M150 214 202 190 256 244 310 190 362 214 326 398 280 352 256 408 232 352 186 398Z" fill="none" stroke="url(#gold)" stroke-width="25" stroke-linejoin="round"/><path d="M151 214 185 246 185 330 218 290 256 332 294 290 327 330 327 246 361 214 344 376 294 332 256 384 218 332 168 376Z" fill="url(#blue)"/><path d="M196 214 256 276 316 214 300 280 256 324 212 280Z" fill="url(#gold)"/><circle cx="256" cy="68" r="8" fill="#fff7bd"/><circle cx="198" cy="142" r="6" fill="#fff7bd"/><circle cx="314" cy="142" r="6" fill="#fff7bd"/></svg>
